<svg width="361" height="96" viewBox="0 0 361 96" fill="none" xmlns="http://www.w3.org/2000/svg">
<g id="Finoxa-wordmark-dark" clip-path="url(#clip0_61_108)">
<g id="Layer 2">
<g id="Group 1">
<path id="Vector" d="M90.3876 4.88994L88.4101 16.1259C88.2554 16.991 87.8015 17.7741 87.1278 18.3382C86.4541 18.9024 85.6034 19.2117 84.7247 19.2121H34.792C33.911 19.2131 33.0587 19.5245 32.3846 20.0917C31.7106 20.6588 31.2581 21.4454 31.1065 22.3132L28.9642 34.8376C28.8142 35.7184 28.3543 36.5165 27.6675 37.0879C26.9807 37.6593 26.1122 37.9664 25.2189 37.9537H14.1028C13.5552 37.9535 13.0144 37.8332 12.5184 37.6014C12.0223 37.3696 11.5832 37.0318 11.2318 36.6119C10.8804 36.1919 10.6254 35.7001 10.4847 35.1709C10.344 34.6418 10.321 34.0882 10.4174 33.5492L12.9342 19.2121L15.6908 3.58657C15.8454 2.72154 16.2993 1.93843 16.9731 1.37425C17.6468 0.810078 18.4974 0.50076 19.3762 0.500417H86.6423C87.1934 0.492193 87.7394 0.605687 88.2416 0.832803C88.7438 1.05992 89.1896 1.39506 89.5473 1.81431C89.9051 2.23357 90.1658 2.7266 90.3111 3.25825C90.4563 3.78989 90.4825 4.34704 90.3876 4.88994Z" fill="#222326"/>
<path id="Vector_2" d="M61.3239 39.6914H31.4961C30.6173 39.6918 29.7667 40.0011 29.093 40.5653C28.4192 41.1294 27.9653 41.9126 27.8107 42.7776L25.3837 56.5454C25.3065 56.9659 25.1026 57.3527 24.7994 57.654C24.6034 57.8513 24.3698 58.0072 24.1125 58.1127C23.8552 58.2182 23.5794 58.2711 23.3013 58.2683H9.48853C8.60899 58.2657 7.7568 58.5739 7.08247 59.1386C6.40813 59.7033 5.95501 60.4881 5.80312 61.3544L3.06154 76.9799L0.499737 91.1822C0.404882 91.7251 0.431011 92.2823 0.576261 92.8139C0.721511 93.3456 0.982301 93.8386 1.34003 94.2579C1.69775 94.6771 2.1436 95.0123 2.64575 95.2394C3.14791 95.4665 3.694 95.58 4.24507 95.5718H15.3612C16.24 95.5714 17.0906 95.2621 17.7643 94.6979C18.4381 94.1338 18.892 93.3506 19.0466 92.4856L21.7732 76.9799L24.7695 59.9761C24.8467 59.5557 25.0506 59.1689 25.3537 58.8675C25.5505 58.6723 25.7846 58.5187 26.0419 58.4157C26.2993 58.3128 26.5747 58.2626 26.8519 58.2683H59.3614C60.2431 58.2703 61.097 57.9599 61.7716 57.3922C62.4463 56.8245 62.898 56.0362 63.0468 55.1671L65.0093 44.081C65.1059 43.5427 65.0831 42.9898 64.9423 42.4614C64.8015 41.9329 64.5462 41.4419 64.1946 41.0231C63.843 40.6043 63.4035 40.2679 62.9075 40.0378C62.4114 39.8077 61.8708 39.6894 61.3239 39.6914Z" fill="#222326"/>
</g>
<path id="Finoxa" d="M118.039 75.5V18.7727H154.379V27.3871H128.315V42.7876H151.887V51.402H128.315V75.5H118.039ZM163.298 75.5V32.9545H173.325V75.5H163.298ZM168.34 26.9162C166.752 26.9162 165.385 26.3899 164.24 25.3374C163.095 24.2663 162.523 22.983 162.523 21.4872C162.523 19.973 163.095 18.6896 164.24 17.6371C165.385 16.566 166.752 16.0305 168.34 16.0305C169.946 16.0305 171.313 16.566 172.439 17.6371C173.584 18.6896 174.156 19.973 174.156 21.4872C174.156 22.983 173.584 24.2663 172.439 25.3374C171.313 26.3899 169.946 26.9162 168.34 26.9162ZM193.663 50.571V75.5H183.636V32.9545H193.22V40.1839H193.719C194.697 37.8018 196.258 35.9091 198.4 34.5057C200.56 33.1023 203.229 32.4006 206.405 32.4006C209.341 32.4006 211.898 33.0284 214.077 34.2841C216.275 35.5398 217.974 37.3587 219.174 39.7408C220.393 42.1229 220.993 45.0128 220.974 48.4105V75.5H210.947V49.9616C210.947 47.1179 210.209 44.8928 208.732 43.2862C207.273 41.6797 205.251 40.8764 202.665 40.8764C200.911 40.8764 199.351 41.2642 197.984 42.0398C196.636 42.7969 195.575 43.8956 194.799 45.3359C194.042 46.7763 193.663 48.5213 193.663 50.571ZM249.726 76.331C245.571 76.331 241.97 75.4169 238.923 73.5888C235.876 71.7607 233.513 69.2031 231.832 65.9162C230.17 62.6293 229.339 58.7884 229.339 54.3935C229.339 49.9986 230.17 46.1484 231.832 42.843C233.513 39.5376 235.876 36.9709 238.923 35.1428C241.97 33.3146 245.571 32.4006 249.726 32.4006C253.881 32.4006 257.482 33.3146 260.528 35.1428C263.575 36.9709 265.93 39.5376 267.592 42.843C269.272 46.1484 270.112 49.9986 270.112 54.3935C270.112 58.7884 269.272 62.6293 267.592 65.9162C265.93 69.2031 263.575 71.7607 260.528 73.5888C257.482 75.4169 253.881 76.331 249.726 76.331ZM249.781 68.2983C252.034 68.2983 253.918 67.6797 255.432 66.4425C256.946 65.1868 258.072 63.5064 258.811 61.4013C259.568 59.2962 259.947 56.951 259.947 54.3658C259.947 51.7621 259.568 49.4077 258.811 47.3026C258.072 45.179 256.946 43.4893 255.432 42.2337C253.918 40.978 252.034 40.3501 249.781 40.3501C247.473 40.3501 245.553 40.978 244.02 42.2337C242.506 43.4893 241.37 45.179 240.613 47.3026C239.874 49.4077 239.505 51.7621 239.505 54.3658C239.505 56.951 239.874 59.2962 240.613 61.4013C241.37 63.5064 242.506 65.1868 244.02 66.4425C245.553 67.6797 247.473 68.2983 249.781 68.2983ZM285.222 32.9545L293.809 48.6598L302.534 32.9545H313.142L300.318 54.2273L313.364 75.5H302.811L293.809 60.1825L284.89 75.5H274.253L287.216 54.2273L274.586 32.9545H285.222ZM332.989 76.3587C330.293 76.3587 327.864 75.8786 325.704 74.9183C323.562 73.9396 321.863 72.4993 320.607 70.5973C319.37 68.6953 318.751 66.3501 318.751 63.5618C318.751 61.1612 319.195 59.1761 320.081 57.6065C320.967 56.0369 322.177 54.7812 323.71 53.8395C325.242 52.8977 326.969 52.1868 328.889 51.7067C330.828 51.2081 332.832 50.848 334.9 50.6264C337.393 50.3679 339.415 50.1371 340.966 49.9339C342.517 49.7124 343.643 49.38 344.345 48.9368C345.065 48.4751 345.425 47.7642 345.425 46.804V46.6378C345.425 44.5511 344.807 42.9354 343.57 41.7905C342.332 40.6456 340.55 40.0732 338.224 40.0732C335.768 40.0732 333.82 40.6087 332.379 41.6797C330.957 42.7507 329.997 44.0156 329.499 45.4744L320.136 44.1449C320.875 41.5597 322.094 39.3991 323.793 37.6634C325.491 35.9091 327.569 34.598 330.025 33.7301C332.481 32.8438 335.195 32.4006 338.168 32.4006C340.218 32.4006 342.259 32.6406 344.29 33.1207C346.321 33.6009 348.177 34.3949 349.857 35.5028C351.538 36.5923 352.886 38.0788 353.901 39.9624C354.935 41.8459 355.452 44.2003 355.452 47.0256V75.5H345.813V69.6555H345.481C344.871 70.8374 344.013 71.9453 342.905 72.9794C341.815 73.995 340.44 74.8168 338.778 75.4446C337.134 76.054 335.205 76.3587 332.989 76.3587ZM335.592 68.9908C337.605 68.9908 339.35 68.5937 340.827 67.7997C342.305 66.9872 343.44 65.9162 344.234 64.5866C345.047 63.2571 345.453 61.8075 345.453 60.2379V55.2244C345.139 55.483 344.604 55.723 343.847 55.9446C343.108 56.1662 342.277 56.3601 341.354 56.5263C340.43 56.6925 339.516 56.8402 338.612 56.9695C337.707 57.0987 336.922 57.2095 336.257 57.3018C334.761 57.505 333.423 57.8374 332.241 58.299C331.059 58.7607 330.126 59.407 329.443 60.2379C328.76 61.0504 328.418 62.103 328.418 63.3956C328.418 65.2422 329.092 66.6364 330.44 67.5781C331.788 68.5199 333.506 68.9908 335.592 68.9908Z" fill="#222326"/>
</g>
</g>
<defs>
<clipPath id="clip0_61_108">
<rect width="360.443" height="96" fill="white"/>
</clipPath>
</defs>
</svg>
