<svg width="200" height="200" viewBox="0 0 200 200" fill="none" xmlns="http://www.w3.org/2000/svg">
<g clip-path="url(#clip0_61_191)">
<rect width="200" height="200" rx="28" fill="url(#paint0_linear_61_191)"/>
<g filter="url(#filter0_d_61_191)">
<path d="M161.75 40.9796L159.03 56.2841C158.817 57.4624 158.192 58.529 157.265 59.2975C156.338 60.066 155.168 60.4873 153.959 60.4878H85.2585C84.0465 60.4891 82.8737 60.9133 81.9464 61.6858C81.019 62.4584 80.3964 63.5298 80.1879 64.7118L77.2403 81.7713C77.0319 82.9533 76.4092 84.0248 75.4819 84.7973C74.5545 85.5698 73.3817 85.994 72.1697 85.9954H56.793C56.0397 85.9951 55.2956 85.8313 54.6131 85.5155C53.9306 85.1997 53.3264 84.7396 52.843 84.1676C52.3596 83.5956 52.0087 82.9257 51.8151 82.2049C51.6215 81.4842 51.5898 80.7301 51.7224 79.996L58.9779 39.2042C59.1907 38.026 59.8152 36.9593 60.7422 36.1908C61.6691 35.4224 62.8395 35.001 64.0485 35.0006H156.597C157.356 34.9894 158.107 35.144 158.798 35.4533C159.489 35.7627 160.102 36.2192 160.594 36.7902C161.086 37.3613 161.445 38.0329 161.645 38.757C161.845 39.4812 161.881 40.2401 161.75 40.9796Z" fill="url(#paint1_linear_61_191)"/>
<path d="M121.762 88.3827H80.7234C79.5144 88.3832 78.344 88.8045 77.4171 89.573C76.4901 90.3414 75.8656 91.4081 75.6528 92.5864L72.3137 111.34C72.2074 111.912 71.9269 112.439 71.5098 112.85C71.2401 113.118 70.9187 113.331 70.5647 113.474C70.2107 113.618 69.8312 113.69 69.4486 113.686H50.4441C49.234 113.683 48.0615 114.103 47.1337 114.872C46.2059 115.641 45.5825 116.71 45.3735 117.89L41.6015 139.173L38.0768 158.518C37.9476 159.251 37.9817 160.003 38.1769 160.721C38.372 161.439 38.7235 162.107 39.2065 162.676C39.6896 163.246 40.2926 163.704 40.9734 164.019C41.6541 164.333 42.3961 164.497 43.1474 164.497H58.4417C59.6507 164.497 60.8211 164.076 61.748 163.307C62.675 162.539 63.2995 161.472 63.5123 160.294L67.3461 139.173L71.4686 116.074C71.5748 115.501 71.8553 114.974 72.2724 114.564C72.5432 114.298 72.8652 114.089 73.2193 113.948C73.5734 113.808 73.9524 113.74 74.3337 113.747H119.062C120.275 113.75 121.45 113.327 122.378 112.554C123.307 111.781 123.928 110.707 124.133 109.523L126.833 94.4229C126.976 93.6853 126.952 92.9255 126.763 92.1981C126.574 91.4706 126.225 90.7937 125.74 90.2161C125.255 89.6384 124.647 89.1744 123.959 88.8574C123.271 88.5404 122.521 88.3783 121.762 88.3827Z" fill="url(#paint2_linear_61_191)"/>
</g>
</g>
<defs>
<filter id="filter0_d_61_191" x="34" y="29" width="131.827" height="137.497" filterUnits="userSpaceOnUse" color-interpolation-filters="sRGB">
<feFlood flood-opacity="0" result="BackgroundImageFix"/>
<feColorMatrix in="SourceAlpha" type="matrix" values="0 0 0 0 0 0 0 0 0 0 0 0 0 0 0 0 0 0 127 0" result="hardAlpha"/>
<feOffset dy="-2"/>
<feGaussianBlur stdDeviation="2"/>
<feComposite in2="hardAlpha" operator="out"/>
<feColorMatrix type="matrix" values="0 0 0 0 1 0 0 0 0 1 0 0 0 0 1 0 0 0 0.15 0"/>
<feBlend mode="normal" in2="BackgroundImageFix" result="effect1_dropShadow_61_191"/>
<feBlend mode="normal" in="SourceGraphic" in2="effect1_dropShadow_61_191" result="shape"/>
</filter>
<linearGradient id="paint0_linear_61_191" x1="100" y1="0" x2="100" y2="200" gradientUnits="userSpaceOnUse">
<stop stop-color="#222326"/>
<stop offset="1" stop-color="#101113"/>
</linearGradient>
<linearGradient id="paint1_linear_61_191" x1="161.75" y1="35.4698" x2="39.3799" y2="165.257" gradientUnits="userSpaceOnUse">
<stop stop-color="white"/>
<stop offset="1" stop-color="#D8D8D8"/>
</linearGradient>
<linearGradient id="paint2_linear_61_191" x1="161.75" y1="35.4698" x2="39.3799" y2="165.257" gradientUnits="userSpaceOnUse">
<stop stop-color="white"/>
<stop offset="1" stop-color="#D8D8D8"/>
</linearGradient>
<clipPath id="clip0_61_191">
<rect width="200" height="200" fill="white"/>
</clipPath>
</defs>
</svg>
